<svg width="156" height="44" viewBox="0 0 156 44" fill="none" xmlns="http://www.w3.org/2000/svg">
<g id="ai-horizons-logo2" clip-path="url(#clip0_161_3303)">
<path id="Vector" d="M33.0855 43.3762C30.9475 44.2095 28.566 44.1595 26.4648 43.2371C24.3637 42.3148 22.7149 40.5956 21.8812 38.4577L19.4941 32.3315L27.4954 11.8044C27.994 10.5229 28.1803 9.14113 28.0387 7.77337C27.8971 6.4056 27.4318 5.09124 26.6812 3.93908C25.9307 2.78692 24.9165 1.83012 23.7226 1.14788C22.5287 0.465644 21.1895 0.0775981 19.8158 0.0158691C21.5125 0.067216 23.1567 0.616483 24.5436 1.59529C25.9305 2.5741 26.9989 3.93921 27.6157 5.52069L38.0084 32.1718C38.8409 34.3104 38.7899 36.6922 37.8668 38.7933C36.9436 40.8943 35.2238 42.5428 33.0855 43.3762Z" fill="url(#paint0_radial_161_3303)"/>
<path id="Vector_2" d="M58.4281 26.028V34.4406C58.4281 36.735 57.5166 38.9354 55.8943 40.5578C54.2719 42.1802 52.0714 43.0916 49.777 43.0916C47.4826 43.0916 45.2822 42.1802 43.6598 40.5578C42.0374 38.9354 41.126 36.735 41.126 34.4406V26.028C41.126 23.7336 42.0374 21.5332 43.6598 19.9108C45.2822 18.2884 47.4826 17.377 49.777 17.377C52.0714 17.377 54.2719 18.2884 55.8943 19.9108C57.5166 21.5332 58.4281 23.7336 58.4281 26.028Z" fill="url(#paint1_radial_161_3303)"/>
<path id="Vector_3" d="M58.4281 8.66025C58.426 10.6613 57.7302 12.5998 56.4593 14.1455C55.1883 15.6912 53.4209 16.7484 51.4579 17.1373C49.495 17.5261 47.458 17.2224 45.6938 16.2779C43.9296 15.3334 42.5475 13.8065 41.7827 11.9573C41.0179 10.1081 40.9179 8.051 41.4995 6.13633C42.0812 4.22165 43.3087 2.56784 44.9729 1.45658C46.637 0.34532 48.635 -0.154657 50.6264 0.0418093C52.6178 0.238275 54.4795 1.11903 55.8945 2.53406C56.7002 3.33746 57.3389 4.29242 57.7737 5.34387C58.2086 6.39531 58.431 7.52244 58.4281 8.66025Z" fill="url(#paint2_radial_161_3303)"/>
<path id="Vector_4" d="M28.0884 8.66471C28.0875 9.73881 27.8872 10.8034 27.4976 11.8044L19.4964 32.3315L17.1947 38.2389C16.3508 40.3623 14.7013 42.0657 12.6061 42.9774C10.511 43.8892 8.1403 43.9353 6.01131 43.1056C3.88233 42.276 2.16789 40.638 1.2421 38.549C0.316312 36.46 0.254323 34.0897 1.06966 31.9552L11.3726 5.52066C12.0006 3.90963 13.0968 2.52363 14.5197 1.54131C15.9427 0.558987 17.6273 0.0253822 19.3563 0.00927734H19.6342H19.818C22.0445 0.110047 24.1464 1.06516 25.6868 2.67598C27.2271 4.28681 28.0873 6.42938 28.0884 8.65815V8.66471Z" fill="url(#paint3_radial_161_3303)"/>
<path id="Vector_5" d="M63.3184 25.2666V10.0452H68.0487V21.2627L65.7295 21.7309C65.7046 20.6806 65.9463 19.6411 66.4318 18.7094C66.8829 17.87 67.5666 17.1787 68.4009 16.7183C69.3153 16.2329 70.3393 15.991 71.3743 16.016H72.663V20.6369H70.7179C70.2239 20.6249 69.7353 20.7418 69.3001 20.976C68.9074 21.1961 68.5867 21.5251 68.3768 21.9234C68.1464 22.3808 68.0336 22.8884 68.0487 23.4003V25.2731L63.3184 25.2666ZM75.4482 25.2666H70.7179V10.0452H75.4482V25.2666Z" fill="url(#paint4_linear_161_3303)"/>
<path id="Vector_6" d="M76.6254 17.657C76.6141 16.5855 76.8296 15.5237 77.2577 14.5414C77.6747 13.5902 78.2761 12.7311 79.0272 12.0138C79.7783 11.2965 80.6642 10.7353 81.6336 10.3625C83.7377 9.56602 86.0604 9.56602 88.1645 10.3625C89.1339 10.7353 90.0198 11.2965 90.7709 12.0138C91.522 12.7311 92.1234 13.5902 92.5404 14.5414C92.9577 15.5267 93.1728 16.5859 93.1728 17.6559C93.1728 18.726 92.9577 19.7851 92.5404 20.7704C92.1234 21.7217 91.522 22.5807 90.7709 23.298C90.0198 24.0153 89.1339 24.5766 88.1645 24.9494C86.0604 25.7458 83.7377 25.7458 81.6336 24.9494C80.6642 24.5766 79.7783 24.0153 79.0272 23.298C78.2761 22.5807 77.6747 21.7217 77.2577 20.7704C76.8298 19.7888 76.6143 18.7278 76.6254 17.657ZM81.4717 17.657C81.4664 18.1297 81.5541 18.5988 81.7299 19.0376C81.8963 19.4519 82.1423 19.8295 82.4541 20.1491C82.7638 20.4678 83.1363 20.7189 83.548 20.8864C84.4128 21.2307 85.3766 21.2307 86.2414 20.8864C86.6535 20.7197 87.0262 20.4685 87.3353 20.1491C87.6485 19.8302 87.8953 19.4524 88.0617 19.0376C88.4059 18.1486 88.4059 17.1632 88.0617 16.2743C87.8953 15.8594 87.6485 15.4817 87.3353 15.1628C87.0255 14.8441 86.653 14.593 86.2414 14.4255C85.3766 14.0812 84.4128 14.0812 83.548 14.4255C83.1367 14.5937 82.7644 14.8447 82.4541 15.1628C82.1423 15.4824 81.8963 15.86 81.7299 16.2743C81.5517 16.7133 81.4618 17.1832 81.4651 17.657H81.4717Z" fill="url(#paint5_linear_161_3303)"/>
<path id="Vector_7" d="M94.3188 25.2666V10.0452H99.7055C100.913 10.0186 102.115 10.2297 103.241 10.6666C104.162 11.0228 104.964 11.629 105.558 12.4169C106.11 13.1797 106.398 14.1014 106.379 15.0424C106.384 15.5288 106.321 16.0135 106.191 16.4821C105.968 17.2745 105.54 17.9939 104.95 18.5672C104.668 18.8396 104.363 19.0863 104.038 19.3045C104.652 19.5831 105.208 19.9759 105.676 20.4619C106.13 20.9398 106.481 21.5058 106.707 22.1248C106.949 22.805 107.067 23.523 107.057 24.2449V25.2754H102.141V23.8926C102.152 23.5898 102.087 23.289 101.953 23.0174C101.831 22.7858 101.643 22.5949 101.414 22.4683C101.155 22.3373 100.868 22.2691 100.577 22.2691C100.287 22.2691 100 22.3373 99.7405 22.4683C99.5055 22.5914 99.3132 22.7829 99.1892 23.0174C99.0555 23.2892 98.9916 23.59 99.0032 23.8926V25.2754L94.3188 25.2666ZM99.0032 14.3773V18.4994C99.1918 18.3218 99.3953 18.1608 99.6114 18.018C99.8149 17.8867 100.01 17.7576 100.198 17.6329C100.386 17.5082 100.563 17.3835 100.736 17.2588C100.9 17.1405 101.052 17.0071 101.191 16.8606C101.323 16.7213 101.426 16.5578 101.495 16.3793C101.57 16.1817 101.607 15.9714 101.602 15.7601C101.61 15.5683 101.572 15.3775 101.493 15.2028C101.413 15.0281 101.294 14.8743 101.145 14.7536C100.76 14.4769 100.29 14.3438 99.8171 14.3773H99.0032Z" fill="url(#paint6_linear_161_3303)"/>
<path id="Vector_8" d="M112.958 25.2666H108.228V10.0452H112.958V25.2666Z" fill="url(#paint7_linear_161_3303)"/>
<path id="Vector_9" d="M125.322 25.2666H114.128L120.075 10.8897V14.2613H114.258V10.0452H125.438L119.53 24.422V21.0504H125.315L125.322 25.2666Z" fill="url(#paint8_linear_161_3303)"/>
<path id="Vector_10" d="M125.672 17.6569C125.661 16.5854 125.876 15.5237 126.304 14.5413C126.719 13.5897 127.318 12.7297 128.067 12.0109C128.815 11.2922 129.699 10.7289 130.667 10.3537C132.772 9.55725 135.095 9.55725 137.2 10.3537C138.17 10.7264 139.055 11.2877 139.807 12.005C140.558 12.7223 141.159 13.5814 141.576 14.5326C141.993 15.5179 142.208 16.577 142.208 17.6471C142.208 18.7172 141.993 19.7763 141.576 20.7616C141.159 21.7128 140.558 22.5719 139.807 23.2892C139.055 24.0065 138.17 24.5678 137.2 24.9405C135.095 25.737 132.772 25.737 130.667 24.9405C129.698 24.5678 128.812 24.0065 128.061 23.2892C127.31 22.5719 126.708 21.7128 126.291 20.7616C125.869 19.7817 125.658 18.7238 125.672 17.6569ZM130.518 17.6569C130.514 18.1295 130.602 18.5984 130.776 19.0375C130.944 19.4519 131.19 19.8295 131.503 20.149C131.812 20.4683 132.185 20.7194 132.597 20.8863C133.461 21.2305 134.424 21.2305 135.288 20.8863C135.7 20.7188 136.072 20.4678 136.382 20.149C136.694 19.8295 136.941 19.4519 137.108 19.0375C137.45 18.148 137.45 17.1637 137.108 16.2742C136.941 15.8598 136.694 15.4822 136.382 15.1627C136.072 14.8446 135.699 14.5937 135.288 14.4254C134.424 14.0812 133.461 14.0812 132.597 14.4254C132.185 14.5932 131.813 14.8442 131.503 15.1627C131.19 15.4822 130.944 15.8598 130.776 16.2742C130.602 16.714 130.514 17.1836 130.518 17.6569Z" fill="url(#paint9_linear_161_3303)"/>
<path id="Vector_11" d="M143.375 25.2666V10.0452H147.798C148.201 11.4756 148.766 12.855 149.483 14.1563C150.226 15.4577 151.113 16.671 152.128 17.7729L150.864 17.8911V10.0452H155.5V25.2666H150.774V20.9345L151.234 22.7373C150.447 22.0199 149.716 21.2447 149.046 20.4181C148.444 19.6678 147.915 18.8619 147.466 18.0114C147.025 17.1702 146.659 16.2916 146.372 15.3859L148.011 15.62V25.2688L143.375 25.2666Z" fill="url(#paint10_linear_161_3303)"/>
<path id="Vector_12" d="M84.353 34.1168L87.2608 30.6577C87.4844 30.4107 87.6749 30.1356 87.8275 29.8394C87.9277 29.6227 87.9793 29.3867 87.9784 29.148C87.982 28.908 87.915 28.6721 87.7859 28.4697C87.6576 28.2685 87.4798 28.1035 87.2695 27.9906C87.0494 27.8712 86.8023 27.8102 86.5519 27.8134C86.2959 27.8101 86.0431 27.871 85.8167 27.9906C85.6048 28.1028 85.4254 28.2678 85.296 28.4697C85.1669 28.6721 85.1 28.908 85.1035 29.148C85.1014 29.3648 85.1454 29.5796 85.2326 29.7781C85.334 29.9873 85.4735 30.1758 85.6439 30.3339L85.2916 30.7714C85.0434 30.5803 84.8429 30.3343 84.7059 30.0526C84.5689 29.7709 84.499 29.4612 84.5018 29.148C84.4984 28.8085 84.5925 28.4751 84.7731 28.1875C84.9559 27.9016 85.209 27.6673 85.5083 27.5071C85.8262 27.3341 86.1834 27.2459 86.5453 27.2511C86.9064 27.2463 87.263 27.332 87.5824 27.5005C87.8809 27.6582 88.1323 27.8922 88.311 28.1788C88.4896 28.4701 88.5815 28.8063 88.5757 29.148C88.5761 29.3378 88.5519 29.5268 88.5035 29.7103C88.4467 29.9094 88.3604 30.099 88.2475 30.2726C88.1014 30.5021 87.9398 30.7214 87.764 30.929L85.1582 34.0227L85.1385 33.5545H88.8361V34.1168H84.353Z" fill="url(#paint11_linear_161_3303)"/>
<path id="Vector_13" d="M90.3021 30.533L89.917 31.1894C89.8889 30.6443 90.0714 30.1092 90.4268 29.695C90.5989 29.5097 90.809 29.3639 91.0428 29.2676C91.2766 29.1713 91.5285 29.1267 91.7811 29.1371C92.0269 29.1265 92.2721 29.1685 92.5003 29.2602C92.7286 29.3519 92.9346 29.4912 93.1048 29.6688C93.4532 30.0641 93.633 30.58 93.6059 31.1062V34.1168H93.0217V31.1172C93.0414 30.7289 92.9105 30.348 92.6563 30.0538C92.3957 29.8002 92.0464 29.6582 91.6827 29.6582C91.319 29.6582 90.9697 29.8002 90.7091 30.0538C90.4549 30.348 90.324 30.7289 90.3437 31.1172V34.1168H89.7529V29.2202H90.2955L90.3021 30.533Z" fill="url(#paint12_linear_161_3303)"/>
<path id="Vector_14" d="M99.1282 34.1167H97.4391C96.9422 34.1275 96.4501 34.0163 96.006 33.7929C95.6059 33.5907 95.2702 33.2808 95.0368 32.898C94.802 32.5009 94.6816 32.0466 94.6889 31.5853C94.6808 31.1464 94.7847 30.7126 94.9909 30.325C95.1828 29.9664 95.4697 29.6674 95.8201 29.4608C96.1847 29.2476 96.6011 29.1393 97.0234 29.1479C97.4067 29.1425 97.7862 29.2248 98.1327 29.3886C98.4643 29.5451 98.7522 29.7811 98.9707 30.0756L98.7103 30.4104C98.5047 30.1766 98.2509 29.99 97.9664 29.8634C97.6918 29.7375 97.3934 29.6719 97.0913 29.6709C96.7588 29.6628 96.4307 29.7477 96.1439 29.9159C95.8732 30.0775 95.6516 30.3097 95.5028 30.5876C95.3403 30.8953 95.2597 31.2396 95.2687 31.5875C95.262 31.9513 95.3551 32.3099 95.5378 32.6246C95.7197 32.9275 95.9817 33.1743 96.2949 33.3378C96.637 33.5159 97.0184 33.6055 97.4041 33.5982H98.695L98.5397 33.7448V27.3451H99.1238L99.1282 34.1167Z" fill="url(#paint13_linear_161_3303)"/>
<path id="Vector_15" d="M102.898 34.1168V27.3342H106.348V27.8965H103.211L103.493 27.6384V32.3052L103.045 33.2022C103.029 32.6773 103.147 32.157 103.388 31.6904C103.611 31.2808 103.95 30.9459 104.362 30.7277C104.831 30.4907 105.352 30.3742 105.878 30.3886H106.014V30.9399H105.878C105.238 30.9042 104.609 31.1219 104.128 31.546C103.912 31.7625 103.744 32.0217 103.635 32.3069C103.526 32.5922 103.477 32.8972 103.493 33.2022V33.8061L103.099 33.5457H106.34V34.108L102.898 34.1168Z" fill="url(#paint14_linear_161_3303)"/>
<path id="Vector_16" d="M107.608 34.1168V27.3342H108.234C108.903 27.318 109.565 27.4683 110.162 27.7718C110.701 28.0536 111.154 28.4779 111.469 28.9987C111.785 29.5194 111.951 30.1166 111.951 30.7255C111.951 31.3343 111.785 31.9316 111.469 32.4523C111.154 32.973 110.701 33.3973 110.162 33.6792C109.565 33.9816 108.903 34.1319 108.234 34.1168H107.608ZM108.201 33.8783L107.952 33.5457H108.35C108.884 33.5573 109.412 33.4299 109.882 33.176C110.32 32.9338 110.686 32.5784 110.941 32.1469C111.196 31.7153 111.33 31.2233 111.33 30.7222C111.33 30.2211 111.196 29.7291 110.941 29.2975C110.686 28.866 110.32 28.5106 109.882 28.2684C109.412 28.0145 108.884 27.8871 108.35 27.8987H107.954L108.204 27.5749L108.201 33.8783Z" fill="url(#paint15_linear_161_3303)"/>
<path id="Vector_17" d="M113.776 34.1168H113.183V27.3342H113.776V34.1168Z" fill="url(#paint16_linear_161_3303)"/>
<path id="Vector_18" d="M116.62 34.1168V27.5946L116.85 27.8134C116.48 27.8134 116.119 27.8265 115.756 27.855C115.393 27.8834 115.084 27.9206 114.798 27.9687V27.4064C115.084 27.3649 115.413 27.3299 115.782 27.297C116.152 27.2642 116.529 27.2511 116.903 27.2511C117.277 27.2511 117.653 27.2664 118.029 27.297C118.406 27.3277 118.734 27.3649 119.018 27.4064V27.9687C118.83 27.9425 118.627 27.9162 118.404 27.8922C118.18 27.8681 117.948 27.8484 117.706 27.8353C117.463 27.8221 117.22 27.8134 116.977 27.8134L117.196 27.5946V34.1168H116.62Z" fill="url(#paint17_linear_161_3303)"/>
<path id="Vector_19" d="M120.664 34.1168H120.069V27.3342H120.664V34.1168Z" fill="url(#paint18_linear_161_3303)"/>
<path id="Vector_20" d="M121.915 30.7299C121.911 30.2652 122.001 29.8044 122.18 29.3756C122.537 28.5422 123.202 27.8785 124.035 27.5224C124.464 27.3433 124.925 27.2511 125.39 27.2511C125.855 27.2511 126.315 27.3433 126.744 27.5224C127.58 27.8801 128.246 28.5461 128.604 29.3821C128.783 29.8112 128.875 30.2715 128.875 30.7365C128.875 31.2014 128.783 31.6617 128.604 32.0908C128.427 32.5054 128.172 32.8821 127.853 33.2001C127.2 33.8499 126.316 34.2147 125.394 34.2147C124.472 34.2147 123.588 33.8499 122.935 33.2001C122.616 32.8819 122.362 32.5052 122.186 32.0908C122.003 31.6607 121.911 31.1974 121.915 30.7299ZM122.519 30.7299C122.516 31.1189 122.594 31.5042 122.749 31.8611C122.898 32.2065 123.11 32.5211 123.375 32.7887C123.635 33.0543 123.944 33.2681 124.285 33.4189C124.634 33.5732 125.012 33.6515 125.394 33.6486C125.77 33.6514 126.142 33.5769 126.488 33.4298C126.833 33.2834 127.144 33.0691 127.405 32.7997C127.674 32.5294 127.89 32.211 128.041 31.8611C128.337 31.139 128.337 30.3296 128.041 29.6075C127.894 29.2601 127.683 28.9433 127.42 28.6733C127.159 28.4052 126.847 28.1911 126.503 28.0431C126.157 27.897 125.785 27.8226 125.409 27.8243C125.028 27.818 124.65 27.8925 124.3 28.0431C123.96 28.1939 123.651 28.4077 123.39 28.6733C123.125 28.9405 122.913 29.2552 122.764 29.6009C122.607 29.9566 122.527 30.3412 122.528 30.7299H122.519Z" fill="url(#paint19_linear_161_3303)"/>
<path id="Vector_21" d="M130.155 34.1168V27.3342H130.707C131.099 28.2602 131.583 29.1448 132.151 29.9751C132.696 30.7627 133.326 31.4877 134.03 32.1367L133.875 32.2199V27.3452H134.468V34.1277H133.875V32.5765L133.98 32.8784C133.511 32.4591 133.067 32.0135 132.65 31.5438C132.245 31.0873 131.873 30.6033 131.536 30.0954C131.198 29.5873 130.894 29.0582 130.623 28.5113H130.748V34.1277L130.155 34.1168Z" fill="url(#paint20_linear_161_3303)"/>
</g>
<defs>
<radialGradient id="paint0_radial_161_3303" cx="0" cy="0" r="1" gradientUnits="userSpaceOnUse" gradientTransform="translate(33.4181 41.5427) scale(28.5984 28.5984)">
<stop stop-color="#F2F2F9"/>
<stop offset="0.33" stop-color="#E1E1E6"/>
<stop offset="0.59" stop-color="#D9D9DD"/>
<stop offset="0.73" stop-color="#CBCBCD"/>
<stop offset="1" stop-color="#A5A5A5"/>
</radialGradient>
<radialGradient id="paint1_radial_161_3303" cx="0" cy="0" r="1" gradientUnits="userSpaceOnUse" gradientTransform="translate(55.3278 18.1755) scale(26.4279 26.428)">
<stop stop-color="#F2F2F9"/>
<stop offset="0.42" stop-color="#E1E1E6"/>
<stop offset="0.74" stop-color="#D9D9DD"/>
<stop offset="0.81" stop-color="#D4D4D8"/>
<stop offset="0.89" stop-color="#C6C6C8"/>
<stop offset="0.97" stop-color="#AEAEAF"/>
<stop offset="1" stop-color="#A5A5A5"/>
</radialGradient>
<radialGradient id="paint2_radial_161_3303" cx="0" cy="0" r="1" gradientUnits="userSpaceOnUse" gradientTransform="translate(56.6012 0.720273) scale(19.6651 19.6651)">
<stop stop-color="#F2F2F9"/>
<stop offset="0.38" stop-color="#E1E1E6"/>
<stop offset="0.67" stop-color="#D9D9DD"/>
<stop offset="0.77" stop-color="#D6D6DA"/>
<stop offset="0.85" stop-color="#CDCDD0"/>
<stop offset="0.92" stop-color="#BDBDBF"/>
<stop offset="1" stop-color="#A5A5A5"/>
</radialGradient>
<radialGradient id="paint3_radial_161_3303" cx="0" cy="0" r="1" gradientUnits="userSpaceOnUse" gradientTransform="translate(24.5986 0.446863) scale(51.32 51.32)">
<stop stop-color="#F2F2F9"/>
<stop offset="0.33" stop-color="#E1E1E6"/>
<stop offset="0.59" stop-color="#D9D9DD"/>
<stop offset="0.73" stop-color="#CBCBCD"/>
<stop offset="1" stop-color="#A5A5A5"/>
</radialGradient>
<linearGradient id="paint4_linear_161_3303" x1="52.7835" y1="11.2617" x2="158.171" y2="51.8586" gradientUnits="userSpaceOnUse">
<stop stop-color="#00FF87"/>
<stop offset="1" stop-color="#60EFFF"/>
</linearGradient>
<linearGradient id="paint5_linear_161_3303" x1="54.7877" y1="6.06321" x2="160.176" y2="46.658" gradientUnits="userSpaceOnUse">
<stop stop-color="#00FF87"/>
<stop offset="1" stop-color="#60EFFF"/>
</linearGradient>
<linearGradient id="paint6_linear_161_3303" x1="56.4787" y1="1.66983" x2="161.867" y2="42.2668" gradientUnits="userSpaceOnUse">
<stop stop-color="#00FF87"/>
<stop offset="1" stop-color="#60EFFF"/>
</linearGradient>
<linearGradient id="paint7_linear_161_3303" x1="58.1087" y1="-2.56166" x2="163.497" y2="38.0353" gradientUnits="userSpaceOnUse">
<stop stop-color="#00FF87"/>
<stop offset="1" stop-color="#60EFFF"/>
</linearGradient>
<linearGradient id="paint8_linear_161_3303" x1="59.2968" y1="-5.64445" x2="164.685" y2="34.9525" gradientUnits="userSpaceOnUse">
<stop stop-color="#00FF87"/>
<stop offset="1" stop-color="#60EFFF"/>
</linearGradient>
<linearGradient id="paint9_linear_161_3303" x1="61.126" y1="-10.3923" x2="166.512" y2="30.2047" gradientUnits="userSpaceOnUse">
<stop stop-color="#00FF87"/>
<stop offset="1" stop-color="#60EFFF"/>
</linearGradient>
<linearGradient id="paint10_linear_161_3303" x1="63.128" y1="-15.5908" x2="168.516" y2="25.004" gradientUnits="userSpaceOnUse">
<stop stop-color="#00FF87"/>
<stop offset="1" stop-color="#60EFFF"/>
</linearGradient>
<linearGradient id="paint11_linear_161_3303" x1="50.519" y1="17.1429" x2="155.907" y2="57.7398" gradientUnits="userSpaceOnUse">
<stop stop-color="#00FF87"/>
<stop offset="1" stop-color="#60EFFF"/>
</linearGradient>
<linearGradient id="paint12_linear_161_3303" x1="50.8867" y1="16.1868" x2="156.275" y2="56.7815" gradientUnits="userSpaceOnUse">
<stop stop-color="#00FF87"/>
<stop offset="1" stop-color="#60EFFF"/>
</linearGradient>
<linearGradient id="paint13_linear_161_3303" x1="52.0922" y1="13.0601" x2="157.478" y2="53.6571" gradientUnits="userSpaceOnUse">
<stop stop-color="#00FF87"/>
<stop offset="1" stop-color="#60EFFF"/>
</linearGradient>
<linearGradient id="paint14_linear_161_3303" x1="52.952" y1="10.8263" x2="158.34" y2="51.4232" gradientUnits="userSpaceOnUse">
<stop stop-color="#00FF87"/>
<stop offset="1" stop-color="#60EFFF"/>
</linearGradient>
<linearGradient id="paint15_linear_161_3303" x1="53.4332" y1="9.57699" x2="158.821" y2="50.1718" gradientUnits="userSpaceOnUse">
<stop stop-color="#00FF87"/>
<stop offset="1" stop-color="#60EFFF"/>
</linearGradient>
<linearGradient id="paint16_linear_161_3303" x1="54.0968" y1="7.85513" x2="159.484" y2="48.4511" gradientUnits="userSpaceOnUse">
<stop stop-color="#00FF87"/>
<stop offset="1" stop-color="#60EFFF"/>
</linearGradient>
<linearGradient id="paint17_linear_161_3303" x1="54.6473" y1="6.42642" x2="160.035" y2="47.0213" gradientUnits="userSpaceOnUse">
<stop stop-color="#00FF87"/>
<stop offset="1" stop-color="#60EFFF"/>
</linearGradient>
<linearGradient id="paint18_linear_161_3303" x1="54.9861" y1="5.54687" x2="160.375" y2="46.1425" gradientUnits="userSpaceOnUse">
<stop stop-color="#00FF87"/>
<stop offset="1" stop-color="#60EFFF"/>
</linearGradient>
<linearGradient id="paint19_linear_161_3303" x1="55.6364" y1="3.8578" x2="161.024" y2="44.4547" gradientUnits="userSpaceOnUse">
<stop stop-color="#00FF87"/>
<stop offset="1" stop-color="#60EFFF"/>
</linearGradient>
<linearGradient id="paint20_linear_161_3303" x1="56.5293" y1="1.53858" x2="161.917" y2="42.1356" gradientUnits="userSpaceOnUse">
<stop stop-color="#00FF87"/>
<stop offset="1" stop-color="#60EFFF"/>
</linearGradient>
<clipPath id="clip0_161_3303">
<rect width="155" height="43.9668" fill="white" transform="translate(0.5)"/>
</clipPath>
</defs>
</svg>
