<svg width="56" height="46" viewBox="0 0 56 46" fill="none" xmlns="http://www.w3.org/2000/svg">
<g id="itc-logo">
<path id="Vector" d="M5.79289 45.8924H10.167V25.5623H0.00195313V40.0993C0.00195302 41.6354 0.612002 43.1085 1.69795 44.1949C2.7839 45.2812 4.25685 45.8918 5.79289 45.8924Z" fill="white"/>
<path id="Vector_2" d="M56 22.9738H22.9185V45.8923H12.7535V22.9738H0V18.5997C0 17.0633 0.610335 15.5898 1.69674 14.5034C2.78314 13.417 4.25662 12.8066 5.79303 12.8066H45.8046L56 22.9738Z" fill="white"/>
<path id="Vector_3" d="M55.9998 35.7251L45.8043 45.8902H31.0839C30.3507 45.8903 29.6248 45.746 28.9474 45.4655C28.2701 45.185 27.6546 44.7738 27.1362 44.2554C26.6178 43.737 26.2066 43.1216 25.9261 42.4442C25.6456 41.7669 25.5013 41.0409 25.5015 40.3078V25.558H35.6665V35.723L55.9998 35.7251Z" fill="white"/>
<path id="Vector_4" d="M22.9186 7.66439V10.2224H12.7515V0.107666L22.9186 7.66439Z" fill="white"/>
</g>
</svg>
