<svg width="61" height="44" viewBox="0 0 61 44" fill="none" xmlns="http://www.w3.org/2000/svg">
<path d="M19.8787 0.200867C16.465 0.660413 13.2427 2.7003 11.536 6.32041L9.61328 11.2495C11.3853 7.48633 16.8751 7.60594 18.4138 11.5967L25.7046 30.4971L25.7293 30.5598L29.2326 39.5452C30.3107 42.3103 32.9375 44 35.7192 44C36.5655 44 37.4262 43.8425 38.2622 43.5127C41.8438 42.0959 43.607 38.0248 42.2016 34.4178L31.5451 7.08065C29.7303 2.42762 25.5546 0.10035 21.3789 0.100132C20.8774 0.100132 20.3762 0.133707 19.8787 0.200867Z" fill="url(#paint0_linear_33313_18845)"/>
<path d="M11.14 7.08065L0.483345 34.4178C-0.921973 38.0248 0.841254 42.0959 4.42292 43.5127C5.2589 43.8425 6.11956 44 6.96572 44C9.74756 44 12.3744 42.3103 13.4524 39.5452L16.9558 30.5598L16.9805 30.4971L24.2712 11.5967C25.8099 7.60594 31.2997 7.48633 33.0718 11.2495L31.1491 6.32041C29.4424 2.7003 26.2199 0.660413 22.8063 0.200867C22.3088 0.133707 21.8077 0.100132 21.3061 0.100132C17.1304 0.100132 12.9548 2.42762 11.14 7.08065Z" fill="url(#paint1_linear_33313_18845)"/>
<path d="M53.9578 10.7292C53.0604 10.7292 52.2042 10.8569 51.4186 11.0914C48.8362 11.8571 47.0094 13.7596 47.0117 15.9812V38.6796C47.0094 40.9029 48.8362 42.8035 51.4186 43.5712C52.2042 43.8039 53.0604 43.9315 53.9578 43.9333C56.2252 43.9333 58.239 43.114 59.5111 41.8429C60.3877 40.9666 60.9084 39.8731 60.9106 38.6865V38.0034L60.8947 28.7223L60.9106 32.2858L60.913 27.3303L60.9106 22.375L60.8947 25.9402L60.9106 16.6573V15.976C60.9106 14.7946 60.3923 13.7027 59.5178 12.8265C58.2496 11.5532 56.2343 10.7291 53.965 10.7292C53.9628 10.7292 53.9602 10.7292 53.9578 10.7292Z" fill="url(#paint2_linear_33313_18845)"/>
<path d="M61.0007 6.92119C61.0007 10.7436 57.9239 13.8423 54.1284 13.8423C50.3328 13.8423 47.2559 10.7436 47.2559 6.92119C47.2559 3.09873 50.3328 9.04303e-05 54.1284 9.04303e-05C57.9239 9.04303e-05 61.0007 3.09873 61.0007 6.92119Z" fill="#0DFC98"/>
<defs>
<linearGradient id="paint0_linear_33313_18845" x1="36.8547" y1="29.5233" x2="13.2321" y2="6.21277" gradientUnits="userSpaceOnUse">
<stop stop-color="white"/>
<stop offset="0.413902" stop-color="white"/>
<stop offset="1" stop-color="#636466"/>
</linearGradient>
<linearGradient id="paint1_linear_33313_18845" x1="3.35387" y1="48.0832" x2="44.4419" y2="-36.0851" gradientUnits="userSpaceOnUse">
<stop stop-color="white"/>
<stop offset="0.720755" stop-color="white"/>
<stop offset="1" stop-color="#636466"/>
</linearGradient>
<linearGradient id="paint2_linear_33313_18845" x1="54.4926" y1="43.9209" x2="53.2571" y2="5.8838" gradientUnits="userSpaceOnUse">
<stop stop-color="white"/>
<stop offset="0.799087" stop-color="white"/>
<stop offset="1" stop-color="#636466"/>
</linearGradient>
</defs>
</svg>
